
      <svg data-logo="logo" xmlns="http://www.w3.org/2000/svg" viewBox="0 0 113 43.6">
        <g id="logogram" transform="translate(0, 1.3000000000000007) rotate(0) "><path d="M0.301758 30.08L0.301761 10.08L10.3018 15.6355V24.5799L18.3018 29.08L26.3018 24.5799V15.6355L36.3019 10.08V30.08L18.3018 40.08L0.301758 30.08Z" fill="#192657"/><path fill-rule="evenodd" clip-rule="evenodd" d="M5.30177 12.8578L0.301758 10.08L18.3018 0.0799561L36.3019 10.08L31.3018 12.8578V27.58L18.3018 35.08L5.30176 27.58L5.30177 12.8578ZM30.7602 13.1587L26.3018 15.6355V15.58L18.3018 11.0799L10.3018 15.58V15.6355L5.84343 13.1587V27.2723L18.3018 34.4598L30.7602 27.2723V13.1587Z" fill="url(#paint0_linear_5558_2243)"/></g>
        <g id="logotype" transform="translate(40, 9.100000000000001)"><path fill="#" d="M13.29 26L3.07 0.69L6.87 0.69Q7.48 0.69 7.87 0.99Q8.25 1.29 8.44 1.76L8.44 1.76L14.39 17.20Q14.69 17.95 14.96 18.85Q15.23 19.75 15.48 20.75L15.48 20.75Q15.88 18.74 16.48 17.20L16.48 17.20L22.41 1.76Q22.57 1.36 22.97 1.03Q23.37 0.69 23.97 0.69L23.97 0.69L27.76 0.69L17.54 26L13.29 26ZM34.73 7.76L34.73 7.76Q36.43 7.76 37.85 8.31Q39.28 8.85 40.31 9.89Q41.34 10.93 41.92 12.45Q42.50 13.96 42.50 15.90L42.50 15.90Q42.50 16.39 42.45 16.72Q42.41 17.04 42.30 17.22Q42.18 17.41 41.99 17.49Q41.80 17.56 41.50 17.56L41.50 17.56L30.41 17.56Q30.60 20.33 31.89 21.63Q33.19 22.92 35.32 22.92L35.32 22.92Q36.37 22.92 37.13 22.68Q37.90 22.43 38.46 22.13Q39.03 21.84 39.46 21.59Q39.89 21.34 40.29 21.34L40.29 21.34Q40.56 21.34 40.75 21.45Q40.94 21.55 41.08 21.75L41.08 21.75L42.34 23.32Q41.62 24.16 40.73 24.73Q39.84 25.30 38.87 25.64Q37.90 25.98 36.89 26.12Q35.88 26.26 34.94 26.26L34.94 26.26Q33.07 26.26 31.46 25.64Q29.85 25.02 28.66 23.80Q27.47 22.59 26.78 20.79Q26.10 19 26.10 16.64L26.10 16.64Q26.10 14.80 26.70 13.18Q27.29 11.56 28.40 10.36Q29.51 9.16 31.11 8.46Q32.72 7.76 34.73 7.76ZM34.82 10.86L34.82 10.86Q32.93 10.86 31.86 11.93Q30.79 13.00 30.49 14.96L30.49 14.96L38.61 14.96Q38.61 14.12 38.39 13.37Q38.16 12.63 37.69 12.07Q37.21 11.51 36.50 11.19Q35.78 10.86 34.82 10.86ZM49.64 26L45.32 26L45.32 8.04L47.85 8.04Q48.52 8.04 48.78 8.29Q49.04 8.53 49.13 9.13L49.13 9.13L49.39 11.30Q50.36 9.64 51.65 8.67Q52.95 7.71 54.56 7.71L54.56 7.71Q55.89 7.71 56.76 8.32L56.76 8.32L56.20 11.56Q56.15 11.88 55.97 12.01Q55.80 12.14 55.50 12.14L55.50 12.14Q55.24 12.14 54.78 12.02Q54.33 11.89 53.58 11.89L53.58 11.89Q52.23 11.89 51.27 12.64Q50.30 13.38 49.64 14.82L49.64 14.82L49.64 26ZM72.47 14.66L72.47 26L70.53 26Q69.92 26 69.57 25.82Q69.22 25.63 69.05 25.07L69.05 25.07L68.66 23.80Q67.98 24.41 67.32 24.87Q66.66 25.34 65.97 25.65Q65.27 25.96 64.48 26.12Q63.69 26.28 62.73 26.28L62.73 26.28Q61.59 26.28 60.63 25.97Q59.66 25.67 58.97 25.05Q58.28 24.44 57.90 23.53Q57.51 22.62 57.51 21.41L57.51 21.41Q57.51 20.40 58.05 19.41Q58.58 18.42 59.82 17.63Q61.06 16.83 63.13 16.30Q65.19 15.78 68.26 15.71L68.26 15.71L68.26 14.66Q68.26 12.86 67.50 11.99Q66.73 11.12 65.28 11.12L65.28 11.12Q64.23 11.12 63.53 11.37Q62.83 11.61 62.32 11.92Q61.80 12.23 61.36 12.47Q60.92 12.72 60.40 12.72L60.40 12.72Q59.96 12.72 59.65 12.49Q59.33 12.26 59.14 11.93L59.14 11.93L58.35 10.55Q61.45 7.71 65.83 7.71L65.83 7.71Q67.40 7.71 68.63 8.23Q69.87 8.74 70.72 9.66Q71.58 10.58 72.03 11.86Q72.47 13.14 72.47 14.66L72.47 14.66ZM64.08 23.30L64.08 23.30Q64.74 23.30 65.30 23.18Q65.86 23.06 66.36 22.81Q66.86 22.57 67.32 22.21Q67.78 21.85 68.26 21.36L68.26 21.36L68.26 18.34Q66.37 18.42 65.10 18.66Q63.83 18.89 63.06 19.26Q62.29 19.63 61.97 20.12Q61.64 20.61 61.64 21.19L61.64 21.19Q61.64 22.32 62.32 22.81Q62.99 23.30 64.08 23.30Z"/></g>
        <defs xmlns="http://www.w3.org/2000/svg">
<linearGradient id="paint0_linear_5558_2243" x1="5.30176" y1="7.85773" x2="32.3018" y2="7.85774" gradientUnits="userSpaceOnUse">
<stop stop-color="#64C2DB"/>
<stop offset="0.307292" stop-color="#7476ED"/>
<stop offset="0.604167" stop-color="#C994DF"/>
<stop offset="1" stop-color="#E56F8C"/>
</linearGradient>
</defs>
      </svg>
    